<svg width="960" height="720" viewBox="0 0 960 720" xmlns="http://www.w3.org/2000/svg">
  <defs>
    <linearGradient id="bg" x1="0" y1="0" x2="1" y2="1">
      <stop offset="0" stop-color="#0f172a" />
      <stop offset="1" stop-color="#1d4ed8" />
    </linearGradient>
    <linearGradient id="glow" x1="0" y1="0" x2="0" y2="1">
      <stop offset="0" stop-color="#38bdf8" stop-opacity="0.85" />
      <stop offset="1" stop-color="#818cf8" stop-opacity="0.25" />
    </linearGradient>
    <radialGradient id="highlight" cx="50%" cy="50%" r="70%">
      <stop offset="0" stop-color="rgba(255,255,255,0.8)" />
      <stop offset="1" stop-color="rgba(255,255,255,0)" />
    </radialGradient>
    <filter id="shadow" x="-20%" y="-20%" width="140%" height="140%">
      <feDropShadow dx="0" dy="24" stdDeviation="24" flood-color="rgba(15,23,42,0.45)" />
    </filter>
  </defs>
  <rect width="960" height="720" rx="48" fill="url(#bg)" />
  <g filter="url(#shadow)" transform="translate(140 80)">
    <ellipse cx="340" cy="260" rx="320" ry="220" fill="url(#highlight)" />
  </g>
  <g transform="translate(220 140) scale(1.05)">
    <path d="M180 60c-40 0-72 32-72 72v188c0 40 32 72 72 72s72-32 72-72V132c0-40-32-72-72-72z" fill="white" opacity="0.94" />
    <path d="M180 112c-16.6 0-30 13.4-30 30v116c0 16.6 13.4 30 30 30s30-13.4 30-30V142c0-16.6-13.4-30-30-30z" fill="#0f172a" opacity="0.85" />
    <circle cx="180" cy="248" r="22" fill="#38bdf8" />
    <rect x="152" y="42" width="56" height="16" rx="8" fill="#94a3b8" opacity="0.4" />
  </g>
  <g transform="translate(460 140) scale(1.05)">
    <path d="M180 60c-40 0-72 32-72 72v188c0 40 32 72 72 72s72-32 72-72V132c0-40-32-72-72-72z" fill="white" opacity="0.94" />
    <path d="M180 112c-16.6 0-30 13.4-30 30v116c0 16.6 13.4 30 30 30s30-13.4 30-30V142c0-16.6-13.4-30-30-30z" fill="#0f172a" opacity="0.85" />
    <circle cx="180" cy="248" r="22" fill="#7c3aed" />
    <rect x="152" y="42" width="56" height="16" rx="8" fill="#94a3b8" opacity="0.4" />
  </g>
  <g transform="translate(276 436)">
    <rect x="0" y="0" width="408" height="96" rx="48" fill="url(#glow)" opacity="0.9" />
    <text x="204" y="60" font-family="'Inter', 'Segoe UI', sans-serif" font-size="38" text-anchor="middle" fill="#0f172a" font-weight="700">
      AI Simultaneous Interpretation
    </text>
  </g>
</svg>
