<svg width="720" height="520" viewBox="0 0 720 520" xmlns="http://www.w3.org/2000/svg">
  <defs>
    <linearGradient id="panel" x1="0" y1="0" x2="1" y2="1">
      <stop offset="0" stop-color="#0f172a" />
      <stop offset="1" stop-color="#1d4ed8" />
    </linearGradient>
    <linearGradient id="pin" x1="0" y1="0" x2="0" y2="1">
      <stop offset="0" stop-color="#f97316" />
      <stop offset="1" stop-color="#ef4444" />
    </linearGradient>
  </defs>
  <rect x="32" y="32" width="656" height="456" rx="40" fill="#0f172a" opacity="0.08" />
  <rect x="96" y="88" width="528" height="344" rx="32" fill="url(#panel)" opacity="0.92" />
  <path d="M360 160c-66 0-120 54-120 120 0 86 120 192 120 192s120-106 120-192c0-66-54-120-120-120z" fill="url(#pin)" />
  <circle cx="360" cy="280" r="48" fill="#f8fafc" />
  <circle cx="360" cy="280" r="24" fill="#1d4ed8" />
  <path d="M168 164l72 40-48 64-72-40z" fill="#1e293b" opacity="0.35" />
  <path d="M216 356l60-84 92 52-60 84z" fill="#1e293b" opacity="0.25" />
  <path d="M432 204l96-52 60 84-96 52z" fill="#1e293b" opacity="0.28" />
  <path d="M420 368l84-48 52 72-84 48z" fill="#1e293b" opacity="0.22" />
  <text x="360" y="448" font-family="'Inter', 'Segoe UI', sans-serif" font-size="28" fill="#f1f5f9" text-anchor="middle">
    Shenzhen Nanshan · Le Pu Building
  </text>
</svg>
