<svg width="640" height="480" viewBox="0 0 640 480" xmlns="http://www.w3.org/2000/svg">
  <defs>
    <linearGradient id="bg" x1="0" y1="0" x2="1" y2="1">
      <stop offset="0" stop-color="#e0f2fe" />
      <stop offset="1" stop-color="#ede9fe" />
    </linearGradient>
    <linearGradient id="frame" x1="0" y1="0" x2="0" y2="1">
      <stop offset="0" stop-color="#0f172a" />
      <stop offset="1" stop-color="#111827" />
    </linearGradient>
  </defs>
  <rect x="32" y="32" width="576" height="416" rx="48" fill="url(#bg)" />
  <g transform="translate(220 80)">
    <rect x="0" y="0" width="200" height="320" rx="48" fill="url(#frame)" />
    <rect x="24" y="36" width="152" height="72" rx="24" fill="#1e293b" />
    <rect x="24" y="124" width="152" height="152" rx="28" fill="#0ea5e9" opacity="0.2" />
    <rect x="44" y="144" width="112" height="24" rx="12" fill="#38bdf8" opacity="0.4" />
    <rect x="44" y="184" width="112" height="24" rx="12" fill="#38bdf8" opacity="0.3" />
    <rect x="44" y="224" width="112" height="24" rx="12" fill="#38bdf8" opacity="0.2" />
    <circle cx="100" cy="288" r="24" fill="#38bdf8" />
  </g>
  <g transform="translate(140 320)">
    <rect x="0" y="0" width="360" height="96" rx="32" fill="white" opacity="0.92" />
    <rect x="40" y="32" width="160" height="24" rx="12" fill="#1d4ed8" opacity="0.5" />
    <rect x="220" y="32" width="100" height="24" rx="12" fill="#cbd5f5" opacity="0.6" />
  </g>
</svg>
