<svg width="720" height="520" viewBox="0 0 720 520" xmlns="http://www.w3.org/2000/svg">
  <defs>
    <linearGradient id="board" x1="0" y1="0" x2="1" y2="1">
      <stop offset="0" stop-color="#1e293b" />
      <stop offset="1" stop-color="#0f172a" />
    </linearGradient>
    <linearGradient id="accent" x1="0" y1="0" x2="1" y2="1">
      <stop offset="0" stop-color="#38bdf8" />
      <stop offset="1" stop-color="#7c3aed" />
    </linearGradient>
  </defs>
  <rect x="40" y="56" width="640" height="408" rx="36" fill="#eef2f7" />
  <rect x="96" y="116" width="528" height="248" rx="28" fill="url(#board)" />
  <rect x="128" y="148" width="160" height="112" rx="20" fill="#1d4ed8" opacity="0.35" />
  <rect x="312" y="148" width="160" height="112" rx="20" fill="#0ea5e9" opacity="0.28" />
  <rect x="128" y="276" width="160" height="56" rx="16" fill="#38bdf8" opacity="0.4" />
  <rect x="312" y="276" width="208" height="56" rx="16" fill="#7c3aed" opacity="0.35" />
  <circle cx="560" cy="228" r="36" fill="#38bdf8" opacity="0.5" />
  <circle cx="520" cy="188" r="20" fill="#7c3aed" opacity="0.4" />
  <g transform="translate(128 392)">
    <rect x="0" y="0" width="192" height="92" rx="24" fill="white" />
    <circle cx="48" cy="46" r="28" fill="#1d4ed8" />
    <rect x="92" y="28" width="76" height="16" rx="8" fill="#0f172a" opacity="0.8" />
    <rect x="92" y="52" width="96" height="16" rx="8" fill="#0f172a" opacity="0.5" />
  </g>
  <g transform="translate(360 392)">
    <rect x="0" y="0" width="232" height="92" rx="24" fill="white" />
    <circle cx="48" cy="46" r="28" fill="#38bdf8" />
    <rect x="92" y="28" width="96" height="16" rx="8" fill="#0f172a" opacity="0.8" />
    <rect x="92" y="52" width="116" height="16" rx="8" fill="#0f172a" opacity="0.5" />
  </g>
  <rect x="308" y="88" width="104" height="24" rx="12" fill="url(#accent)" />
</svg>
