<svg width="640" height="480" viewBox="0 0 640 480" xmlns="http://www.w3.org/2000/svg">
  <defs>
    <linearGradient id="bg" x1="0" y1="0" x2="1" y2="1">
      <stop offset="0" stop-color="#e2e8f0" />
      <stop offset="1" stop-color="#e0f2fe" />
    </linearGradient>
    <linearGradient id="panel" x1="0" y1="0" x2="0" y2="1">
      <stop offset="0" stop-color="#111827" />
      <stop offset="1" stop-color="#1f2937" />
    </linearGradient>
    <linearGradient id="chart" x1="0" y1="0" x2="1" y2="1">
      <stop offset="0" stop-color="#2563eb" />
      <stop offset="1" stop-color="#7c3aed" />
    </linearGradient>
  </defs>
  <rect x="32" y="32" width="576" height="416" rx="48" fill="url(#bg)" />
  <g transform="translate(120 120)">
    <rect x="0" y="0" width="400" height="240" rx="32" fill="url(#panel)" />
    <rect x="32" y="40" width="336" height="48" rx="16" fill="#1e293b" />
    <rect x="32" y="104" width="72" height="96" rx="12" fill="url(#chart)" opacity="0.8" />
    <rect x="120" y="132" width="72" height="68" rx="12" fill="#38bdf8" opacity="0.6" />
    <rect x="208" y="116" width="72" height="84" rx="12" fill="#7c3aed" opacity="0.6" />
    <rect x="296" y="148" width="72" height="52" rx="12" fill="#38bdf8" opacity="0.4" />
    <circle cx="80" cy="80" r="12" fill="#38bdf8" />
    <circle cx="120" cy="80" r="12" fill="#818cf8" />
    <circle cx="160" cy="80" r="12" fill="#cbd5f5" />
  </g>
  <g transform="translate(196 356)">
    <rect x="0" y="0" width="248" height="60" rx="20" fill="#2563eb" opacity="0.2" />
    <rect x="20" y="18" width="96" height="24" rx="12" fill="#2563eb" opacity="0.7" />
    <rect x="136" y="18" width="92" height="24" rx="12" fill="#1d4ed8" opacity="0.4" />
  </g>
</svg>
